<svg xmlns="http://www.w3.org/2000/svg" style="display: none;">
	<symbol id="companyLogoBig" viewBox="0 0 326 338" fill="none" xmlns="http://www.w3.org/2000/svg">
		<g id="Respect Studio title">
			<g id="Group 92" class="js_animate-word-1">
				<path id="Path 210" d="M25.8349 37.946C24.113 38.037 22.5722 38.037 20.8513 38.037H9.25225V65.654H0.010437V0H20.8503C36.7976 0 48.2145 3.171 48.2145 18.927C48.2145 29.341 43.2319 34.322 35.1667 36.495L50.3937 65.654H40.0593L25.8349 37.946ZM9.25225 7.78799V30.247H21.5787C31.2727 30.247 38.7026 29.247 38.7026 19.109C38.7026 8.97101 31.2707 7.78799 21.5787 7.78799H9.25225Z" fill="#E63E3A"/>
				<path id="Path 211" d="M63.0753 44.0131C63.3474 54.5131 70.9574 59.5871 78.1161 59.5871C85.3649 59.5871 89.351 56.3281 91.435 51.5281H99.9505C97.7773 59.8601 89.9843 66.8351 78.1151 66.8351C62.7071 66.8351 54.1937 55.7841 54.1937 41.3861C54.1937 25.9001 64.523 16.1201 77.8429 16.1201C92.7927 16.1201 101.581 28.5271 100.585 44.0131H63.0753ZM63.1653 36.9481H91.8873C91.6152 30.0661 86.6326 23.1821 77.844 23.1821C70.5962 23.1821 63.8907 27.1681 63.1653 36.9481Z" fill="#E63E3A"/>
				<path id="Path 212" d="M136.015 31.1489C134.657 25.3489 130.312 23.0869 124.509 23.0869C119.707 23.0869 114.271 24.8079 114.271 29.2459C114.271 33.1459 116.989 34.8619 121.701 35.8589L128.586 37.2149C137.466 38.8479 145.257 42.3769 145.257 51.7069C145.257 61.3959 136.56 66.8309 125.415 66.8309C112.639 66.8309 105.481 58.4069 104.485 49.8949H113.182C114.542 56.1419 118.348 59.8569 125.596 59.8569C131.848 59.8569 136.922 57.2309 136.922 52.6129C136.922 47.6309 132.3 45.7299 127.047 44.5509L119.797 43.1029C113.183 41.6529 105.936 38.7559 105.936 29.6079C105.936 21.0079 114.633 16.0259 125.416 16.0259C136.021 16.0259 143.085 21.8199 144.626 31.1489H136.015Z" fill="#E63E3A"/>
				<path id="Path 213" d="M161.659 16.936V24.636C164.649 19.474 169.722 16.123 177.606 16.123C188.841 16.123 198.446 25.541 198.446 41.48C198.446 57.689 188.841 66.837 177.606 66.837C169.723 66.837 164.649 63.484 161.659 58.321V81.505H153.413V16.936H161.659ZM175.521 59.769C183.948 59.769 189.474 53.1571 189.474 41.4771C189.474 29.7971 183.948 23.177 175.521 23.177C168.182 23.177 161.296 28.6121 161.296 41.4771C161.296 54.342 168.182 59.769 175.521 59.769Z" fill="#E63E3A"/>
				<path id="Path 214" d="M212.129 44.0131C212.4 54.5131 220.011 59.5871 227.17 59.5871C234.418 59.5871 238.405 56.3281 240.49 51.5281H249.005C246.831 59.8601 239.038 66.8351 227.17 66.8351C211.762 66.8351 203.249 55.7841 203.249 41.3861C203.249 25.9001 213.579 16.1201 226.898 16.1201C241.848 16.1201 250.637 28.5271 249.64 44.0131H212.129ZM212.219 36.9481H240.941C240.67 30.0661 235.685 23.1821 226.897 23.1821C219.649 23.1821 212.943 27.1681 212.219 36.9481Z" fill="#E63E3A"/>
				<path id="Path 215" d="M298.024 33.2361H289.688C288.51 27.4361 283.527 23.3651 277.094 23.3651C269.846 23.3651 263.05 29.0651 263.05 41.2951C263.05 53.6101 269.846 59.5871 277.094 59.5871C280.043 59.6661 282.931 58.7415 285.285 56.9647C287.639 55.188 289.319 52.6645 290.05 49.8081H298.569C296.848 58.9551 288.24 66.8351 276.823 66.8351C262.778 66.8351 254.08 56.2351 254.08 41.3861C254.08 26.8971 263.231 16.1201 277.639 16.1201C282.538 16.0074 287.31 17.6832 291.063 20.8337C294.815 23.9842 297.29 28.3934 298.024 33.2361Z" fill="#E63E3A"/>
				<path id="Path 216" d="M307.992 4.70898H316.236V16.936H325.478V23.545H316.236V52.435C316.236 57.505 316.598 58.773 321.309 58.773H325.478V65.657H319.498C310.166 65.657 307.992 63.574 307.992 53.433V23.545H300.288V16.936H307.992V4.70898Z" fill="#E63E3A"/>
			</g>
			<g id="Group 93" class="js_animate-word-2">
				<path id="Path 217" d="M89.6151 112.074C89.6151 123.94 84.2704 134.351 71.6758 136.974V128.008C79.1957 125.835 81.8241 118.228 81.8241 111.708C81.8241 106.637 79.5579 97.7599 72.2191 97.7599C66.4161 97.7599 63.5206 102.289 62.1619 108.449L60.44 116.055C58.2648 126.106 54.4598 138.155 41.23 138.155C28.4543 138.155 21.5677 126.201 21.5677 113.162C21.5677 97.6758 30.0852 87.8939 43.132 86.1729V95.2289C34.0712 96.9499 29.3588 103.2 29.3588 113.341C29.3588 123.121 33.8892 128.648 40.4136 128.648C47.3902 128.648 50.1086 122.669 52.0116 114.517L53.7335 106.367C55.7265 97.3129 60.8012 88.3459 71.6728 88.3459C84.2704 88.3469 89.6151 101.479 89.6151 112.074Z" fill="#E63E3A"/>
				<path id="Path 218" d="M83.7251 148.843V157.085H71.4937V166.32H64.8793V157.085H35.9762C30.9016 157.085 29.634 157.447 29.634 162.156V166.32H22.7474V160.344C22.7474 151.017 24.8314 148.844 34.9797 148.844H64.8803V141.144H71.4947V148.844L83.7251 148.843Z" fill="#E63E3A"/>
				<path id="Path 219" d="M29.724 203.813C25.1026 201.006 21.5697 196.568 21.5697 188.513C21.5697 177.283 29.1807 172.936 40.3255 172.936H71.4937V181.177H42.7718C35.2509 181.177 28.7274 182.353 28.7274 191.41C28.7274 199.29 34.1643 203.817 44.6747 203.817H71.4937V212.058H22.7513V203.817L29.724 203.813Z" fill="#E63E3A"/>
				<path id="Path 220" d="M88.4375 256.248V264.489H22.7513V256.248H30.0912C24.9265 253.26 21.5737 248.188 21.5737 240.309C21.5737 229.082 30.7245 219.482 46.943 219.482C62.8893 219.482 72.3121 229.082 72.3121 240.309C72.3121 248.188 68.9604 253.26 63.7947 256.248H88.4375ZM65.2415 242.391C65.2415 233.971 58.628 228.446 46.9389 228.446C35.2498 228.446 28.6364 233.97 28.6364 242.391C28.6364 249.727 34.0722 256.609 46.9389 256.609C59.8056 256.609 65.2415 249.727 65.2415 242.39V242.391Z" fill="#E63E3A"/>
				<path id="Path 221" d="M71.4937 283.508H22.7463V275.269H71.4937V283.508ZM88.4375 283.508H78.4704V275.269H88.4375V283.508Z" fill="#E63E3A"/>
				<path id="Path 222" d="M46.9389 337.842C29.2707 337.842 21.5697 325.797 21.5697 314.476C21.5697 303.155 29.2737 291.111 46.9389 291.111C64.6041 291.111 72.3082 303.156 72.3082 314.476C72.3082 325.796 64.6081 337.842 46.9389 337.842ZM28.8175 314.476C28.8175 321.995 34.4354 329.056 46.9389 329.056C59.9867 329.056 65.0613 321.994 65.0613 314.476C65.0613 306.958 60.2589 299.897 46.9389 299.897C33.8921 299.899 28.8175 306.964 28.8175 314.479V314.476Z" fill="#E63E3A"/>
			</g>
			<g id="Group 94">
				<path id="Path 223" d="M0.010437 77.9658H10.4308V88.3808H0.010437V77.9658Z" fill="#E63E3A"/>
			</g>
		</g>
	</symbol>
	<symbol id="companyLogoShort" viewBox="0 0 79 51" fill="none">
		<path d="M21.609 36.3C21.661 37.28 21.661 38.157 21.661 39.137V45.74H37.389V51H0L0 39.138C0 30.061 1.806 23.563 10.778 23.563C16.709 23.563 19.545 26.399 20.778 30.99L37.384 22.326V28.206L21.609 36.3ZM4.435 45.74H17.225V38.726C17.225 33.208 16.657 28.979 10.882 28.979C5.107 28.979 4.435 33.208 4.435 38.726L4.435 45.74Z" fill="#101820"/>
		<path d="M63.822 3.8147e-06C70.579 3.8147e-06 76.508 3.042 78.004 10.211H72.898C71.66 5.931 67.329 4.43501 63.615 4.43501C60.728 4.43501 55.672 5.72501 55.672 9.902C55.672 13.202 58.251 14.853 61.759 15.626L66.09 16.606C71.814 17.843 78.672 20.009 78.672 27.538C78.672 34.81 71.866 38.729 64.441 38.729C55.623 38.729 50.052 33.881 49.072 26.456H54.229C55.209 31.612 58.772 34.294 64.543 34.294C70.112 34.294 73.26 31.715 73.26 28.002C73.26 24.031 69.855 22.484 65.213 21.402L60.572 20.422C55.417 19.287 50.31 16.399 50.31 10.211C50.31 3.042 57.788 3.8147e-06 63.822 3.8147e-06Z" fill="#101820"/>
		<path d="M44.398 51V45.069H50.328V51H44.398Z" fill="#101820"/>
	</symbol>
	<symbol id="arrowForButton" viewBox="0 0 44 45" fill="none" >
		<path d="M32.1007 22.4996L26.3873 16.7861H23.5306L28.2399 21.4955L11.8994 21.4877L11.9008 23.5128L28.2498 23.5135L23.5306 28.213L26.3866 28.2137L32.1007 22.4996Z" fill="currentColor"/>
	</symbol>
	<symbol id="trustMethodsB2B" viewBox="0 0 86 86" fill="none" >
		<path d="M52.0655 61.0601C52.0655 61.9533 51.8007 62.8264 51.3044 63.569C50.8082 64.3117 50.1029 64.8905 49.2777 65.2323C48.4525 65.5741 47.5445 65.6635 46.6685 65.4893C45.7925 65.315 44.9878 64.8849 44.3562 64.2534C43.7246 63.6218 43.2945 62.8171 43.1203 61.9411C42.946 61.0651 43.0355 60.1571 43.3773 59.3319C43.7191 58.5067 44.2979 57.8014 45.0405 57.3052C45.7832 56.8089 46.6563 56.5441 47.5495 56.5441C48.7472 56.5441 49.8959 57.0199 50.7428 57.8668C51.5897 58.7137 52.0655 59.8624 52.0655 61.0601Z" fill="currentColor"/>
		<path d="M42.9935 16.8671C36.5618 16.8595 30.3558 19.2371 25.5755 23.5401C25.3123 23.2969 24.9669 23.1622 24.6085 23.1631C24.2266 23.1641 23.8607 23.3163 23.5907 23.5863C23.3207 23.8563 23.1685 24.2222 23.1675 24.6041C23.1667 24.9624 23.3014 25.3078 23.5445 25.5711C19.0863 30.5457 16.7037 37.0395 16.8868 43.717C17.0698 50.3944 19.8045 56.7479 24.5285 61.4709C29.2524 66.1938 35.6066 68.9272 42.2841 69.1087C48.9616 69.2903 55.4548 66.9063 60.4285 62.4471C60.6917 62.6903 61.0371 62.8249 61.3955 62.8241C61.7773 62.823 62.1432 62.6709 62.4133 62.4009C62.6833 62.1308 62.8354 61.7649 62.8365 61.3831C62.8372 61.0247 62.7026 60.6793 62.4595 60.4161C65.8287 56.6592 68.0372 52.0066 68.8179 47.0211C69.5986 42.0355 68.918 36.9305 66.8585 32.3236C64.7991 27.7166 61.4489 23.8051 57.2132 21.062C52.9775 18.319 48.0378 16.8619 42.9915 16.8671H42.9935ZM17.1045 42.9981C17.1002 36.624 19.4568 30.4741 23.7195 25.7351C23.9691 25.9353 24.2795 26.0446 24.5995 26.0451C24.9813 26.044 25.3473 25.8919 25.6173 25.6219C25.8873 25.3518 26.0394 24.9859 26.0405 24.6041C26.0415 24.2838 25.932 23.973 25.7305 23.7241C30.6573 19.3008 37.0924 16.9347 43.7111 17.1128C50.3298 17.2909 56.6283 19.9997 61.3101 24.6815C65.9919 29.3633 68.7007 35.6618 68.8788 42.2805C69.0569 48.8992 66.6908 55.3343 62.2675 60.2611C62.0178 60.0609 61.7075 59.9516 61.3875 59.9511C61.0056 59.9521 60.6397 60.1043 60.3697 60.3743C60.0997 60.6443 59.9475 61.0102 59.9465 61.3921C59.9455 61.7123 60.055 62.0231 60.2565 62.2721C56.5354 65.6109 51.9266 67.8001 46.9875 68.575C42.0485 69.3499 36.9907 68.6772 32.4259 66.6383C27.8611 64.5994 23.9847 61.2817 21.2657 57.0863C18.5466 52.8909 17.1013 47.9975 17.1045 42.9981Z" fill="currentColor" stroke="currentColor" stroke-width="2"/>
		<path d="M84.9925 42.9968C85.0027 33.8084 81.982 24.8732 76.3985 17.5758C76.4075 17.5668 76.4275 17.5568 76.4365 17.5468C76.7047 17.2769 76.8551 16.9118 76.8551 16.5313C76.8551 16.1508 76.7047 15.7858 76.4365 15.5158C76.197 15.2796 75.8808 15.1372 75.5452 15.1142C75.2096 15.0913 74.8769 15.1894 74.6075 15.3908C73.367 13.9678 72.0306 12.6313 70.6075 11.3908C70.8257 11.1198 70.9373 10.7784 70.9213 10.4308C70.9053 10.0833 70.7627 9.75358 70.5205 9.5038C70.2506 9.23566 69.8855 9.08518 69.505 9.08518C69.1245 9.08518 68.7595 9.23566 68.4895 9.5038C68.4605 9.5328 68.4515 9.57081 68.4225 9.60381C61.1223 4.02487 52.1899 1.00163 43.002 1C33.8141 0.998374 24.8807 4.01846 17.5785 9.59481C17.5695 9.58581 17.5695 9.5758 17.5595 9.5658C17.2896 9.29766 16.9245 9.14718 16.544 9.14718C16.1635 9.14718 15.7985 9.29766 15.5285 9.5658C15.2935 9.80346 15.1508 10.1171 15.126 10.4504C15.1013 10.7838 15.1961 11.115 15.3935 11.3848C13.9705 12.6253 12.634 13.9618 11.3935 15.3848C11.1228 15.1684 10.7821 15.059 10.436 15.0774C10.0899 15.0959 9.76268 15.2409 9.51652 15.4848C9.24838 15.7548 9.09789 16.1198 9.09789 16.5003C9.09789 16.8808 9.24838 17.2458 9.51652 17.5158C9.54323 17.5384 9.57242 17.5578 9.60351 17.5738C3.5826 25.452 0.552786 35.2113 1.05344 45.1142C1.5541 55.0171 5.55274 64.421 12.3375 71.6518C12.0872 71.9217 11.9512 72.2782 11.9581 72.6462C11.9651 73.0143 12.1144 73.3653 12.3747 73.6256C12.635 73.886 12.986 74.0353 13.3541 74.0422C13.7222 74.0491 14.0786 73.9131 14.3485 73.6628C22.1105 80.9457 32.3548 84.9993 42.9985 84.9993C53.6423 84.9993 63.8865 80.9457 71.6485 73.6628C71.9184 73.9131 72.2749 74.0491 72.6429 74.0422C73.011 74.0353 73.3621 73.886 73.6224 73.6256C73.8827 73.3653 74.032 73.0143 74.0389 72.6462C74.0458 72.2782 73.9098 71.9217 73.6595 71.6518C80.9488 63.8933 85.0038 53.6463 84.9975 43.0008L84.9925 42.9968ZM14.4925 73.4768C14.7192 73.2087 14.8369 72.8652 14.8222 72.5144C14.8076 72.1637 14.6617 71.8312 14.4134 71.5829C14.1651 71.3347 13.8327 71.1888 13.4819 71.1741C13.1311 71.1594 12.7876 71.2771 12.5195 71.5038C5.7641 64.3133 1.78196 54.9572 1.28306 45.1038C0.784164 35.2503 3.80093 25.5399 9.79552 17.7038C10.0642 17.87 10.3808 17.9414 10.6948 17.9064C11.0088 17.8714 11.302 17.7321 11.5275 17.5108C11.7854 17.2494 11.9332 16.899 11.9402 16.5319C11.9473 16.1648 11.8132 15.8089 11.5655 15.5378C12.7961 14.1339 14.1176 12.8124 15.5215 11.5818C15.7915 11.8499 16.1565 12.0004 16.537 12.0004C16.9175 12.0004 17.2826 11.8499 17.5525 11.5818C17.7841 11.3489 17.9264 11.042 17.9545 10.7148C17.9827 10.3875 17.8949 10.0608 17.7065 9.79181C24.9684 4.24053 33.8554 1.23365 42.996 1.23528C52.1367 1.2369 61.0227 4.24694 68.2825 9.80081C68.1194 10.0693 68.0505 10.3846 68.0868 10.6966C68.123 11.0087 68.2622 11.2998 68.4825 11.5238C68.742 11.7807 69.0899 11.9288 69.455 11.9377C69.8201 11.9466 70.1748 11.8157 70.4465 11.5718C71.8504 12.8024 73.1719 14.1239 74.4025 15.5278C74.1369 15.7971 73.988 16.1601 73.988 16.5383C73.988 16.9165 74.1369 17.2795 74.4025 17.5488C74.635 17.7768 74.9391 17.9176 75.2633 17.9475C75.5876 17.9773 75.9123 17.8945 76.1825 17.7128C82.1711 25.5478 85.1842 35.2541 84.6854 45.103C84.1865 54.9519 80.2081 64.304 73.4585 71.4938C73.1904 71.2671 72.8469 71.1494 72.4962 71.1641C72.1454 71.1788 71.8129 71.3247 71.5646 71.5729C71.3164 71.8212 71.1705 72.1537 71.1558 72.5044C71.1412 72.8552 71.2588 73.1987 71.4855 73.4668C63.7685 80.7171 53.5785 84.754 42.9898 84.7556C32.4012 84.7573 22.2098 80.7237 14.4905 73.4758L14.4925 73.4768Z" fill="currentColor" stroke="currentColor" stroke-width="2"/>
	</symbol>
	<symbol id="trustMethodsLinkedIn" viewBox="0 0 86 86" fill="none" >
		<path d="M73.3309 41.6131C73.0136 34.5163 70.2104 27.7572 65.4121 22.519C65.6178 22.2528 65.7195 21.9208 65.6981 21.5851C65.6766 21.2494 65.5336 20.933 65.2958 20.6951C65.0579 20.4572 64.7415 20.3142 64.4058 20.2928C64.0701 20.2713 63.7381 20.373 63.4719 20.5787C58.2352 15.7784 51.4759 12.9748 44.3791 12.6595C44.3579 12.3076 44.2032 11.9772 43.9466 11.7355C43.69 11.4939 43.3509 11.3594 42.9984 11.3594C42.646 11.3594 42.3069 11.4939 42.0503 11.7355C41.7937 11.9772 41.639 12.3076 41.6178 12.6595C34.5215 12.9769 27.7629 15.7802 22.525 20.5787C22.2872 20.3944 21.9957 20.2929 21.6949 20.2897C21.3264 20.2905 20.9733 20.4372 20.7128 20.6977C20.4522 20.9583 20.3055 21.3114 20.3047 21.6799C20.305 21.9812 20.4068 22.2737 20.5938 22.51C15.7937 27.7471 12.9903 34.5068 12.675 41.604C12.3232 41.6252 11.9928 41.7799 11.7512 42.0365C11.5095 42.2931 11.375 42.6323 11.375 42.9848C11.375 43.3372 11.5095 43.6764 11.7512 43.933C11.9928 44.1896 12.3232 44.3443 12.675 44.3655C12.9924 51.4622 15.7956 58.2213 20.5938 63.4595C20.3881 63.7257 20.2864 64.0577 20.3078 64.3934C20.3292 64.7292 20.4723 65.0456 20.7101 65.2835C20.948 65.5213 21.2644 65.6643 21.6001 65.6858C21.9358 65.7072 22.2678 65.6055 22.534 65.3998C27.7709 70.1998 34.5301 73.003 41.6268 73.3181C41.648 73.6699 41.8027 74.0004 42.0593 74.242C42.3159 74.4836 42.655 74.6182 43.0074 74.6182C43.3599 74.6182 43.699 74.4836 43.9556 74.242C44.2122 74.0004 44.3669 73.6699 44.3881 73.3181C51.4819 73.0025 58.238 70.1988 63.4709 65.3988C63.7371 65.6045 64.0691 65.7062 64.4048 65.6848C64.7405 65.6634 65.0569 65.5203 65.2948 65.2824C65.5326 65.0446 65.6757 64.7282 65.6971 64.3924C65.7185 64.0567 65.6168 63.7247 65.4111 63.4585C70.2093 58.2242 73.0126 51.4683 73.3299 44.3745C73.6833 44.3554 74.016 44.2016 74.2595 43.9447C74.503 43.6878 74.6387 43.3472 74.6387 42.9933C74.6387 42.6393 74.503 42.2988 74.2595 42.0418C74.016 41.7849 73.6833 41.6311 73.3299 41.6121L73.3309 41.6131ZM73.0969 44.3645C72.7804 51.3952 70.0037 58.0911 65.2521 63.2825C65.0556 63.095 64.8083 62.9694 64.541 62.9214C64.2737 62.8733 63.9982 62.905 63.7487 63.0123C63.4992 63.1196 63.2867 63.2979 63.1378 63.525C62.9888 63.7521 62.9099 64.018 62.9109 64.2896C62.9137 64.6437 63.0506 64.9836 63.2939 65.2408C58.1019 69.9912 51.4069 72.7678 44.3771 73.086C44.3427 72.7463 44.1834 72.4314 43.9301 72.2024C43.6768 71.9733 43.3474 71.8465 43.006 71.8465C42.6645 71.8465 42.3351 71.9733 42.0818 72.2024C41.8285 72.4314 41.6692 72.7463 41.6348 73.086C34.6046 72.7695 27.909 69.9927 22.718 65.2408C22.9054 65.0443 23.031 64.797 23.079 64.5296C23.1271 64.2623 23.0955 63.9868 22.9882 63.7373C22.8808 63.4878 22.7025 63.2753 22.4754 63.1263C22.2483 62.9774 21.9825 62.8985 21.7109 62.8994C21.3568 62.9022 21.017 63.0391 20.7598 63.2825C16.0046 58.0902 13.2275 51.3904 12.915 44.3565C13.2548 44.3221 13.5697 44.1628 13.7987 43.9095C14.0276 43.6561 14.1544 43.3268 14.1544 42.9853C14.1544 42.6438 14.0276 42.3144 13.7987 42.0611C13.5697 41.8077 13.2548 41.6484 12.915 41.614C13.2331 34.5813 16.0094 27.8834 20.7598 22.688C20.9563 22.8755 21.2036 23.0011 21.4709 23.0491C21.7382 23.0972 22.0137 23.0656 22.2632 22.9582C22.5127 22.8509 22.7251 22.6726 22.8741 22.4455C23.0231 22.2184 23.102 21.9525 23.101 21.6809C23.0982 21.3268 22.9613 20.9869 22.718 20.7297C27.9099 15.9743 34.6093 13.197 41.6428 12.8845C41.6772 13.2243 41.8365 13.5392 42.0898 13.7682C42.3431 13.9972 42.6725 14.124 43.0139 14.124C43.3554 14.124 43.6848 13.9972 43.9381 13.7682C44.1914 13.5392 44.3507 13.2243 44.3851 12.8845C51.4153 13.201 58.1109 15.9778 63.3019 20.7297C63.1144 20.9263 62.9889 21.1736 62.9409 21.4409C62.8928 21.7082 62.9244 21.9838 63.0317 22.2333C63.1391 22.4828 63.3173 22.6952 63.5444 22.8442C63.7715 22.9932 64.0374 23.0721 64.309 23.0711C64.6631 23.0683 65.0029 22.9314 65.2601 22.688C70.0117 27.8826 72.7881 34.581 73.1049 41.614C72.766 41.651 72.4525 41.811 72.2237 42.0638C71.995 42.3165 71.8669 42.6444 71.8638 42.9853C71.8578 43.3281 71.9812 43.6606 72.2094 43.9165C72.4375 44.1724 72.7537 44.3331 73.0949 44.3665L73.0969 44.3645Z" fill="currentColor" stroke="currentColor" stroke-width="2"/>
		<path d="M85 42.9975C84.9984 42.6455 84.8633 42.3073 84.622 42.0511C84.3807 41.7949 84.0511 41.6398 83.6999 41.6173C83.4137 33.8628 80.928 26.3496 76.5328 19.9547C72.1376 13.5598 66.0142 8.54708 58.8775 5.50156C54.2853 3.54032 49.3671 2.45485 44.3761 2.30106C44.3549 1.94897 44.2001 1.61826 43.9433 1.37645C43.6865 1.13465 43.3471 1 42.9944 1C42.6417 1 42.3023 1.13465 42.0455 1.37645C41.7888 1.61826 41.634 1.94897 41.6128 2.30106C31.3026 2.66629 21.514 6.92582 14.2192 14.2214C6.92444 21.517 2.66566 31.3065 2.30098 41.6173C1.94891 41.6385 1.61822 41.7933 1.37643 42.0501C1.13464 42.3069 1 42.6463 1 42.999C1 43.3517 1.13464 43.6911 1.37643 43.9479C1.61822 44.2047 1.94891 44.3595 2.30098 44.3807C2.66523 54.6926 6.92435 64.483 14.22 71.7792C21.5157 79.0753 31.3056 83.3347 41.6168 83.6989C41.638 84.051 41.7928 84.3817 42.0495 84.6235C42.3063 84.8653 42.6457 85 42.9984 85C43.3511 85 43.6905 84.8653 43.9473 84.6235C44.2041 84.3817 44.3589 84.051 44.3801 83.6989C54.6927 83.3378 64.4847 79.0795 71.7817 71.7828C79.0787 64.4862 83.3377 54.6939 83.6999 44.3807C84.0516 44.3581 84.3816 44.2027 84.623 43.9458C84.8644 43.689 84.9992 43.35 85 42.9975ZM44.3671 83.4639C44.3327 83.1239 44.1733 82.8087 43.9198 82.5796C43.6662 82.3504 43.3367 82.2235 42.9949 82.2235C42.6532 82.2235 42.3236 82.3504 42.0701 82.5796C41.8166 82.8087 41.6572 83.1239 41.6228 83.4639C31.3703 83.1032 21.6358 78.8687 14.3819 71.6139C7.12794 64.3592 2.89413 54.6239 2.534 44.3707C2.87401 44.3363 3.18914 44.1769 3.4183 43.9234C3.64747 43.6699 3.77436 43.3403 3.77436 42.9985C3.77436 42.6567 3.64747 42.3271 3.4183 42.0736C3.18914 41.8201 2.87401 41.6607 2.534 41.6263C2.89392 31.3724 7.12805 21.6365 14.3826 14.3814C21.6372 7.12642 31.3726 2.89204 41.6258 2.53209C41.6602 2.87212 41.8196 3.18727 42.0731 3.41645C42.3266 3.64563 42.6562 3.77252 42.9979 3.77252C43.3397 3.77252 43.6692 3.64563 43.9228 3.41645C44.1763 3.18727 44.3357 2.87212 44.3701 2.53209C54.6234 2.89227 64.359 7.12684 71.6137 14.382C78.8684 21.6372 83.1027 31.3733 83.4629 41.6273C83.1228 41.6617 82.8077 41.8211 82.5785 42.0746C82.3494 42.3281 82.2225 42.6577 82.2225 42.9995C82.2225 43.3413 82.3494 43.6709 82.5785 43.9244C82.8077 44.1779 83.1228 44.3373 83.4629 44.3717C83.1029 54.6259 78.8688 64.3623 71.614 71.6176C64.3593 78.873 54.6236 83.1077 44.3701 83.4679L44.3671 83.4639Z" fill="currentColor" stroke="currentColor" stroke-width="2"/>
		<path d="M47.4223 42.9999C47.4223 43.8753 47.1627 44.731 46.6765 45.4588C46.1902 46.1866 45.499 46.7539 44.6904 47.0888C43.8818 47.4238 42.992 47.5114 42.1336 47.3405C41.2752 47.1697 40.4868 46.748 39.868 46.129C39.2491 45.51 38.8278 44.7213 38.6572 43.8627C38.4865 43.0041 38.5743 42.1143 38.9094 41.3056C39.2445 40.4969 39.8118 39.8058 40.5396 39.3196C41.2674 38.8334 42.123 38.574 42.9983 38.5742C43.5793 38.5742 44.1547 38.6887 44.6915 38.9111C45.2283 39.1335 45.716 39.4596 46.1269 39.8706C46.5377 40.2815 46.8635 40.7694 47.0858 41.3064C47.3081 41.8433 47.4224 42.4188 47.4223 42.9999Z" fill="currentColor"/>
		<path d="M44.3831 23.0668C44.3734 22.7059 44.2232 22.3632 43.9646 22.1114C43.706 21.8596 43.3594 21.7188 42.9984 21.7188C42.6375 21.7188 42.2909 21.8596 42.0323 22.1114C41.7736 22.3632 41.6235 22.7059 41.6138 23.0668C36.547 23.3889 31.793 25.6287 28.3183 29.3308C24.8437 33.0328 22.9092 37.9193 22.9082 42.9967C22.9072 48.074 24.8397 52.9612 28.3128 56.6647C31.786 60.3681 36.5391 62.6099 41.6058 62.9341C41.6155 63.2949 41.7656 63.6376 42.0242 63.8894C42.2829 64.1412 42.6295 64.2821 42.9904 64.2821C43.3513 64.2821 43.698 64.1412 43.9566 63.8894C44.2152 63.6376 44.3654 63.2949 44.3751 62.9341C49.4446 62.6157 54.2024 60.3776 57.6802 56.6751C61.158 52.9726 63.0945 48.084 63.0955 43.0042C63.0965 37.9243 61.162 33.0349 57.6857 29.3311C54.2094 25.6272 49.4525 23.3871 44.3831 23.0668ZM44.3731 62.701C44.3289 62.3676 44.1651 62.0615 43.9121 61.8398C43.6592 61.6181 43.3343 61.4959 42.9979 61.4959C42.6616 61.4959 42.3367 61.6181 42.0837 61.8398C41.8308 62.0615 41.667 62.3676 41.6228 62.701C36.6138 62.3836 31.9139 60.1699 28.4789 56.5103C25.044 52.8506 23.1321 48.0197 23.1321 43.0004C23.1321 37.9811 25.044 33.1503 28.4789 29.4906C31.9139 25.8309 36.6138 23.6172 41.6228 23.2998C41.667 23.6333 41.8308 23.9393 42.0837 24.161C42.3367 24.3827 42.6616 24.5049 42.9979 24.5049C43.3343 24.5049 43.6592 24.3827 43.9121 24.161C44.1651 23.9393 44.3289 23.6333 44.3731 23.2998C49.382 23.6172 54.082 25.8309 57.5169 29.4906C60.9519 33.1503 62.8638 37.9811 62.8638 43.0004C62.8638 48.0197 60.9519 52.8506 57.5169 56.5103C54.082 60.1699 49.382 62.3836 44.3731 62.701Z" fill="currentColor" stroke="currentColor" stroke-width="2"/>
	</symbol>

</svg>